<?xml version="1.0" encoding="UTF-8"?>
<svg width="17px" height="14px" viewBox="0 0 17 14" version="1.1" xmlns="http://www.w3.org/2000/svg" xmlns:xlink="http://www.w3.org/1999/xlink">
    <!-- Generator: Sketch 62 (91390) - https://sketch.com -->
    <title>Path</title>
    <desc>Created with Sketch.</desc>
    <g id="Page-1" stroke="none" stroke-width="1" fill="none" fill-rule="evenodd">
        <g id="uxShadow_Beta1_Home" transform="translate(-1137.000000, -7504.000000)" fill="#4A4F61" fill-rule="nonzero">
            <g id="Footer" transform="translate(0.000000, 6980.000000)">
                <path d="M1154,525.657385 C1153.36781,525.938462 1152.69419,526.124769 1151.99187,526.215231 C1152.71438,525.778 1153.26581,525.090923 1153.52506,524.262769 C1152.85144,524.669846 1152.10769,524.957385 1151.31506,525.117846 C1150.67544,524.427538 1149.76381,524 1148.76931,524 C1146.83981,524 1145.28644,525.587385 1145.28644,527.533385 C1145.28644,527.813385 1145.30981,528.082615 1145.36719,528.338923 C1142.46975,528.195692 1139.90594,526.788154 1138.18362,524.644 C1137.88294,525.172769 1137.70656,525.778 1137.70656,526.429538 C1137.70656,527.652923 1138.32812,528.737385 1139.25463,529.365231 C1138.69469,529.354462 1138.14538,529.189692 1137.68,528.930154 C1137.68,528.940923 1137.68,528.954923 1137.68,528.968923 C1137.68,530.685538 1138.88806,532.111385 1140.47225,532.439846 C1140.18856,532.518462 1139.87937,532.556154 1139.5585,532.556154 C1139.33538,532.556154 1139.11012,532.543231 1138.89869,532.495846 C1139.35025,533.894769 1140.63162,534.923231 1142.15525,534.956615 C1140.9695,535.896769 1139.46394,536.463231 1137.83406,536.463231 C1137.54825,536.463231 1137.27412,536.450308 1137,536.414769 C1138.54381,537.423846 1140.37344,538 1142.3465,538 C1148.75975,538 1152.266,532.615385 1152.266,527.948 C1152.266,527.791846 1152.26069,527.641077 1152.25325,527.491385 C1152.94494,526.993846 1153.52613,526.372462 1154,525.657385 Z" id="Path"></path>
            </g>
        </g>
    </g>
</svg>