<?xml version="1.0" encoding="UTF-8"?>
<svg width="14px" height="14px" viewBox="0 0 14 14" version="1.1" xmlns="http://www.w3.org/2000/svg" xmlns:xlink="http://www.w3.org/1999/xlink">
    <!-- Generator: Sketch 62 (91390) - https://sketch.com -->
    <title>linkedin</title>
    <desc>Created with Sketch.</desc>
    <g id="Page-1" stroke="none" stroke-width="1" fill="none" fill-rule="evenodd">
        <g id="uxShadow_Beta1_Home" transform="translate(-1198.000000, -7504.000000)">
            <g id="Footer" transform="translate(0.000000, 6980.000000)">
                <g id="linkedin" transform="translate(1195.000000, 521.000000)">
                    <rect id="Rectangle-Copy-13" x="0" y="0" width="20" height="20"></rect>
                    <path d="M16.9965,17 L16.9965,16.9994167 L17,16.9994167 L17,11.8649167 C17,9.35308333 16.45925,7.41816667 13.52275,7.41816667 C12.1110833,7.41816667 11.16375,8.19283333 10.777,8.92725 L10.7361667,8.92725 L10.7361667,7.65266667 L7.95191667,7.65266667 L7.95191667,16.9994167 L10.8510833,16.9994167 L10.8510833,12.37125 C10.8510833,11.1526667 11.0820833,9.97433333 12.5911667,9.97433333 C14.0780833,9.97433333 14.10025,11.365 14.10025,12.4494167 L14.10025,17 L16.9965,17 Z" id="Path" fill="#4A4F61" fill-rule="nonzero"></path>
                    <polygon id="Path" fill="#4A4F61" fill-rule="nonzero" points="3.231 7.65325 6.13366667 7.65325 6.13366667 17 3.231 17"></polygon>
                    <path d="M4.68116667,3 C3.75308333,3 3,3.75308333 3,4.68116667 C3,5.60925 3.75308333,6.37808333 4.68116667,6.37808333 C5.60925,6.37808333 6.36233333,5.60925 6.36233333,4.68116667 C6.36175,3.75308333 5.60866667,3 4.68116667,3 Z" id="Path" fill="#4A4F61" fill-rule="nonzero"></path>
                </g>
            </g>
        </g>
    </g>
</svg>